<svg width="1480" height="209" viewBox="0 0 1480 209" fill="none" xmlns="http://www.w3.org/2000/svg">
<path d="M0.475001 203V-56.38H100.69C113.266 -56.38 125.056 -55.332 136.06 -53.236C147.064 -51.402 157.02 -48.389 165.928 -44.197C174.836 -40.267 182.434 -35.289 188.722 -29.263C195.01 -23.237 199.857 -16.163 203.263 -8.041C206.669 0.0809889 208.372 9.38199 208.372 19.862C208.372 28.77 206.931 37.023 204.049 44.621C201.429 51.957 197.237 58.507 191.473 64.271C185.971 69.773 178.897 74.358 170.251 78.026C161.605 81.432 151.649 83.921 140.383 85.493V90.602C152.435 91.912 162.26 94.794 169.858 99.248C177.718 103.702 184.006 109.859 188.722 117.719C193.7 125.579 197.892 135.666 201.298 147.98L217.018 203H162.391L150.208 152.696C147.85 141.954 144.182 133.57 139.204 127.544C134.226 121.256 128.2 116.802 121.126 114.182C114.052 111.562 105.668 110.252 95.974 110.252H49.993V203H0.475001ZM49.993 71.738H88.9C93.616 71.738 98.856 71.607 104.62 71.345C110.646 71.083 116.672 70.297 122.698 68.987C128.986 67.677 134.619 65.45 139.597 62.306C144.837 59.162 149.029 54.839 152.173 49.337C155.317 43.573 156.889 36.237 156.889 27.329C156.889 18.421 155.317 11.216 152.173 5.71399C149.291 -0.0500172 145.361 -4.50401 140.383 -7.64801C135.405 -10.792 130.165 -13.019 124.663 -14.329C119.161 -15.639 113.921 -16.425 108.943 -16.687C103.965 -16.949 99.904 -17.08 96.76 -17.08H49.993V71.738ZM350.306 208.109C333.538 208.109 318.735 205.751 305.897 201.035C293.059 196.319 282.186 189.507 273.278 180.599C264.37 171.429 257.558 160.425 252.842 147.587C248.388 134.749 246.161 120.208 246.161 103.964C246.161 87.72 248.388 72.917 252.842 59.555C257.296 45.931 263.846 34.141 272.492 24.185C281.138 13.967 291.618 6.10699 303.932 0.604982C316.508 -4.89701 330.787 -7.64801 346.769 -7.64801C361.703 -7.64801 375.065 -5.15901 386.855 -0.181008C398.907 4.79699 408.863 12.264 416.723 22.22C424.845 32.176 430.74 44.359 434.408 58.769C438.338 73.179 439.648 89.816 438.338 108.68L277.994 110.252V81.17L408.863 79.991L392.357 96.104C393.929 81.432 392.75 69.38 388.82 59.948C385.152 50.516 379.65 43.442 372.314 38.726C364.978 34.01 356.594 31.652 347.162 31.652C336.42 31.652 326.988 34.534 318.866 40.298C311.006 45.8 304.849 53.922 300.395 64.664C296.203 75.144 294.107 87.982 294.107 103.178C294.107 125.972 299.085 143.002 309.041 154.268C318.997 165.272 332.883 170.774 350.699 170.774C358.297 170.774 364.847 169.857 370.349 168.023C375.851 165.927 380.305 163.307 383.711 160.163C387.379 156.757 390.261 152.958 392.357 148.766C394.715 144.312 396.418 139.858 397.466 135.404L441.089 144.443C438.993 153.875 435.587 162.521 430.871 170.381C426.417 178.241 420.391 185.053 412.793 190.817C405.457 196.319 396.68 200.511 386.462 203.393C376.244 206.537 364.192 208.109 350.306 208.109ZM564.934 208.109C551.048 208.109 538.472 206.668 527.206 203.786C516.202 201.166 506.639 197.236 498.517 191.996C490.657 186.756 484.369 180.468 479.653 173.132C475.199 165.534 472.448 157.15 471.4 147.98L510.7 134.225C511.486 141.299 514.106 147.718 518.56 153.482C523.276 158.984 529.695 163.307 537.817 166.451C546.201 169.333 556.288 170.774 568.078 170.774C580.916 170.774 590.872 168.809 597.946 164.879C605.282 160.687 608.95 154.792 608.95 147.194C608.95 141.692 606.985 137.369 603.055 134.225C599.125 130.819 593.361 128.068 585.763 125.972C578.427 123.614 569.65 121.387 559.432 119.291C549.476 117.195 539.52 114.837 529.564 112.217C519.87 109.335 510.831 105.667 502.447 101.213C494.325 96.497 487.775 90.471 482.797 83.135C477.819 75.537 475.33 66.105 475.33 54.839C475.33 42.263 478.605 31.39 485.155 22.22C491.967 12.788 501.661 5.45199 514.237 0.211987C527.075 -5.02801 542.533 -7.64801 560.611 -7.64801C577.379 -7.64801 592.051 -5.15901 604.627 -0.181008C617.203 4.53499 627.29 11.347 634.888 20.255C642.748 28.901 647.726 39.512 649.822 52.088L608.557 64.271C608.033 56.935 605.675 50.647 601.483 45.407C597.291 40.167 591.658 36.237 584.584 33.617C577.772 30.997 569.65 29.687 560.218 29.687C548.166 29.687 538.734 31.783 531.922 35.975C525.11 40.167 521.704 45.8 521.704 52.874C521.704 58.638 523.8 63.223 527.992 66.629C532.446 70.035 538.472 72.786 546.07 74.882C553.668 76.978 562.445 79.205 572.401 81.563C582.881 83.397 592.968 85.755 602.662 88.637C612.618 91.257 621.526 94.794 629.386 99.248C637.246 103.702 643.534 109.597 648.25 116.933C652.966 124.007 655.324 133.177 655.324 144.443C655.324 158.067 651.656 169.726 644.32 179.42C637.246 188.852 626.897 196.057 613.273 201.035C599.911 205.751 583.798 208.109 564.934 208.109ZM763.825 208.109C753.607 208.109 744.568 206.668 736.708 203.786C729.11 200.904 722.429 196.712 716.665 191.21C711.163 185.446 706.578 178.634 702.91 170.774C699.504 162.652 696.884 153.613 695.05 143.657C693.478 133.439 692.692 122.173 692.692 109.859V-2.539H742.603V98.855C742.603 105.405 742.865 112.61 743.389 120.47C744.175 128.068 745.747 135.404 748.105 142.478C750.463 149.552 754.262 155.316 759.502 159.77C764.742 164.224 771.947 166.451 781.117 166.451C788.715 166.451 795.396 164.617 801.16 160.949C806.924 157.019 811.902 151.648 816.094 144.836C820.286 137.762 823.561 129.509 825.919 120.077C828.277 110.645 829.718 100.296 830.242 89.03V-2.539H880.153V117.326V203H838.888L839.674 136.583H832.993C829.587 153.351 824.871 167.106 818.845 177.848C812.819 188.328 805.221 196.057 796.051 201.035C787.143 205.751 776.401 208.109 763.825 208.109ZM933.786 203V75.275V-2.539H974.658L973.479 62.699H980.16C983.566 46.717 988.151 33.617 993.915 23.399C999.941 12.919 1007.28 5.18999 1015.92 0.211987C1024.57 -5.02801 1034.66 -7.64801 1046.18 -7.64801C1055.62 -7.64801 1063.74 -5.945 1070.55 -2.539C1077.62 0.60499 1083.39 5.18999 1087.84 11.216C1092.56 17.242 1096.23 24.578 1098.85 33.224C1101.47 41.87 1103.04 51.564 1103.56 62.306H1109.46C1112.86 46.324 1117.71 33.224 1124 23.006C1130.55 12.526 1138.41 4.79699 1147.58 -0.181008C1157.01 -5.15901 1167.36 -7.64801 1178.62 -7.64801C1191.46 -7.64801 1202.07 -5.02801 1210.46 0.211987C1218.84 5.45199 1225.39 12.264 1230.11 20.648C1234.82 29.032 1238.23 37.94 1240.33 47.372C1242.68 56.804 1244.12 65.843 1244.65 74.489C1245.17 82.873 1245.43 89.816 1245.43 95.318V203H1195.52V101.606C1195.52 96.366 1195.26 90.078 1194.74 82.742C1194.48 75.406 1193.17 68.201 1190.81 61.127C1188.71 53.791 1185.31 47.765 1180.59 43.049C1175.87 38.071 1169.19 35.582 1160.55 35.582C1151.64 35.582 1143.78 38.726 1136.97 45.014C1130.15 51.302 1124.78 59.948 1120.85 70.952C1116.92 81.956 1114.57 94.663 1113.78 109.073V203H1065.05V104.75C1065.05 99.772 1064.79 93.484 1064.26 85.886C1064 78.026 1062.82 70.297 1060.72 62.699C1058.63 55.101 1055.09 48.682 1050.11 43.442C1045.4 38.202 1038.59 35.582 1029.68 35.582C1020.51 35.582 1012.52 38.857 1005.7 45.407C999.155 51.695 993.915 60.472 989.985 71.738C986.317 82.742 984.09 95.449 983.304 109.859V203H933.786ZM1388.84 208.109C1372.07 208.109 1357.27 205.751 1344.43 201.035C1331.59 196.319 1320.72 189.507 1311.81 180.599C1302.9 171.429 1296.09 160.425 1291.38 147.587C1286.92 134.749 1284.69 120.208 1284.69 103.964C1284.69 87.72 1286.92 72.917 1291.38 59.555C1295.83 45.931 1302.38 34.141 1311.03 24.185C1319.67 13.967 1330.15 6.10699 1342.47 0.604982C1355.04 -4.89701 1369.32 -7.64801 1385.3 -7.64801C1400.24 -7.64801 1413.6 -5.15901 1425.39 -0.181008C1437.44 4.79699 1447.4 12.264 1455.26 22.22C1463.38 32.176 1469.27 44.359 1472.94 58.769C1476.87 73.179 1478.18 89.816 1476.87 108.68L1316.53 110.252V81.17L1447.4 79.991L1430.89 96.104C1432.46 81.432 1431.28 69.38 1427.35 59.948C1423.69 50.516 1418.18 43.442 1410.85 38.726C1403.51 34.01 1395.13 31.652 1385.7 31.652C1374.95 31.652 1365.52 34.534 1357.4 40.298C1349.54 45.8 1343.38 53.922 1338.93 64.664C1334.74 75.144 1332.64 87.982 1332.64 103.178C1332.64 125.972 1337.62 143.002 1347.57 154.268C1357.53 165.272 1371.42 170.774 1389.23 170.774C1396.83 170.774 1403.38 169.857 1408.88 168.023C1414.38 165.927 1418.84 163.307 1422.24 160.163C1425.91 156.757 1428.79 152.958 1430.89 148.766C1433.25 144.312 1434.95 139.858 1436 135.404L1479.62 144.443C1477.53 153.875 1474.12 162.521 1469.4 170.381C1464.95 178.241 1458.92 185.053 1451.33 190.817C1443.99 196.319 1435.21 200.511 1425 203.393C1414.78 206.537 1402.73 208.109 1388.84 208.109Z" fill="url(#paint0_linear_88_42)"/>
<defs>
<linearGradient id="paint0_linear_88_42" x1="526.158" y1="215.583" x2="526.158" y2="-12.55" gradientUnits="userSpaceOnUse">
<stop stop-color="#F0F0F0"/>
<stop offset="1" stop-color="white"/>
</linearGradient>
</defs>
</svg>
