<svg width="30" height="30" viewBox="0 0 30 30" fill="none" xmlns="http://www.w3.org/2000/svg">
<path d="M18.7502 12.1875C18.5102 12.1875 18.2702 12.0975 18.0864 11.9137C17.7189 11.5462 17.7189 10.9537 18.0864 10.5862L21.4877 7.185H20.0027C19.4852 7.185 19.0652 6.765 19.0652 6.2475C19.0652 5.73 19.4852 5.31 20.0027 5.31H23.7527C24.2702 5.31 24.6902 5.73 24.6902 6.2475V9.9975C24.6902 10.515 24.2702 10.935 23.7527 10.935C23.2352 10.935 22.8152 10.515 22.8152 9.9975V8.5125L19.4139 11.9137C19.2302 12.0975 18.9902 12.1875 18.7502 12.1875Z" fill="black"/>
<path d="M25.3201 18.3262L22.9314 16.95C21.5589 16.1625 19.6501 16.4662 18.7576 17.5425C18.7539 17.5462 18.7614 17.5387 18.7576 17.5425C18.5289 17.8537 18.3264 18.1537 17.8839 18.0825C17.3814 18 16.2939 17.5575 14.5051 15.6712C12.7201 13.7925 12.2814 12.6337 12.1989 12.0675C12.1276 11.5725 12.2739 11.535 12.5251 11.2725C13.7364 9.99748 13.8189 8.00623 12.8064 6.57373L11.2314 4.34623C9.96385 2.55373 7.42885 2.25373 5.8951 3.86623L3.93385 5.93248C3.2626 6.63748 2.75635 7.61623 2.81635 8.75998C2.9401 11.07 3.9226 15.8025 9.0901 21.2437C14.6251 27.0675 19.9089 27.3637 22.1889 27.1387C23.1226 27.045 23.8801 26.55 24.4314 25.965L26.2089 24.0937C27.8364 22.3762 27.3639 19.5037 25.3201 18.3262ZM20.1264 18.8325C20.6064 18.3262 21.3601 18.21 22.0014 18.5812L24.3901 19.9575C25.4176 20.55 25.6164 22.0012 24.8514 22.8075L23.0739 24.6787C22.7251 25.0462 22.3614 25.2412 22.0051 25.2787C20.2126 25.455 15.5326 25.305 10.4514 19.9575C5.60635 14.8575 4.7926 10.5525 4.69135 8.66623C4.6651 8.16748 4.8826 7.66873 5.2951 7.22998L7.25635 5.16373C7.90885 4.47748 9.0601 4.52998 9.70135 5.43373L11.2764 7.66123C11.8051 8.40748 11.7226 9.40123 11.1676 9.98623C10.8639 10.305 10.6126 10.5262 10.4514 10.98C10.3276 11.325 10.2639 11.7787 10.3464 12.345C10.5114 13.4587 11.2389 14.9587 13.1514 16.9687C15.0564 18.9712 16.4926 19.7662 17.5876 19.9387C18.8851 20.1375 20.1264 18.8325 20.1264 18.8325Z" fill="#FE4300"/>
</svg>
