<svg width="30" height="30" viewBox="0 0 30 30" fill="none" xmlns="http://www.w3.org/2000/svg">
<g clip-path="url(#clip0_46_317)">
<path d="M7.54614 13.2648C7.79379 12.2189 8.25888 11.2368 8.91114 10.3825C9.5634 9.52817 10.3882 8.82076 11.3319 8.30627C12.4925 9.59314 13.5061 11.0053 14.3541 12.5165C12.2091 13.4352 9.83947 13.6956 7.54614 13.2648Z" fill="black"/>
<path d="M9.37504 20.1733C8.06529 18.7685 7.33468 16.9207 7.32959 15C8.11946 15.1225 8.91677 15.1908 9.71595 15.2045C11.5865 15.1982 13.4351 14.8011 15.1432 14.0386C15.358 14.4886 15.5489 14.9301 15.733 15.4023C13.1808 16.3145 10.9643 17.9778 9.37504 20.1733Z" fill="black"/>
<path d="M16.3005 16.9943C16.8425 18.7072 17.1856 20.4768 17.3232 22.2682C16.2147 22.6512 15.0308 22.7638 13.87 22.5965C12.7092 22.4293 11.6052 21.9871 10.6499 21.3068C12.0426 19.32 14.0166 17.8134 16.3005 16.9943Z" fill="black"/>
<path d="M15.876 11.7426C15.0561 10.2778 14.0892 8.90025 12.9902 7.63126C14.0398 7.32397 15.1443 7.25264 16.2246 7.42238C17.305 7.59212 18.3344 7.99874 19.2391 8.61308C18.3325 9.86527 17.1901 10.9284 15.876 11.7426Z" fill="black"/>
<path d="M22.5103 16.5341C22.2925 17.5679 21.8639 18.5458 21.2513 19.4066C20.6386 20.2673 19.855 20.9925 18.9495 21.5369C18.7845 19.8393 18.4464 18.1629 17.9404 16.5341C19.449 16.2341 21.0018 16.2341 22.5103 16.5341Z" fill="black"/>
<path d="M20.5465 9.72955C21.8575 11.109 22.6079 12.9271 22.6516 14.8296C20.9025 14.5064 19.1068 14.5319 17.3675 14.9046C17.1511 14.3472 16.9192 13.7983 16.6602 13.2563C18.173 12.3451 19.4932 11.1471 20.5465 9.72955Z" fill="black"/>
<path d="M15 0C12.0333 0 9.13319 0.879735 6.66645 2.52796C4.19972 4.17618 2.27713 6.51886 1.14181 9.25975C0.00649932 12.0006 -0.290551 15.0166 0.288228 17.9264C0.867006 20.8361 2.29562 23.5088 4.3934 25.6066C6.49119 27.7044 9.16394 29.133 12.0737 29.7118C14.9834 30.2906 17.9994 29.9935 20.7403 28.8582C23.4811 27.7229 25.8238 25.8003 27.4721 23.3336C29.1203 20.8668 30 17.9667 30 15C30 11.0218 28.4197 7.20644 25.6066 4.3934C22.7936 1.58035 18.9783 0 15 0ZM15 24.375C13.1458 24.375 11.3332 23.8252 9.79154 22.795C8.24982 21.7649 7.04821 20.3007 6.33864 18.5877C5.62906 16.8746 5.44341 14.9896 5.80514 13.171C6.16688 11.3525 7.05976 9.68199 8.37088 8.37087C9.682 7.05976 11.3525 6.16687 13.171 5.80514C14.9896 5.4434 16.8746 5.62906 18.5877 6.33863C20.3007 7.0482 21.7649 8.24982 22.795 9.79153C23.8252 11.3332 24.375 13.1458 24.375 15C24.3719 17.4854 23.3831 19.8682 21.6256 21.6256C19.8682 23.3831 17.4854 24.3718 15 24.375Z" fill="black"/>
</g>
<defs>
<clipPath id="clip0_46_317">
<rect width="30" height="30" fill="white"/>
</clipPath>
</defs>
</svg>
