<svg width="30" height="30" viewBox="0 0 30 30" fill="none" xmlns="http://www.w3.org/2000/svg">
<g clip-path="url(#clip0_52_514)">
<path d="M26.875 5H15C14.9329 5 14.8663 5.01055 14.8025 5.03123L14.6525 5.08121C14.3249 5.1902 14.1478 5.54404 14.2567 5.87152C14.2574 5.87352 14.2581 5.87545 14.2587 5.87744L20.5412 24.2362L16.4037 28.9637C16.1766 29.2237 16.2032 29.6185 16.4631 29.8456C16.5771 29.9453 16.7235 30.0001 16.8749 30H26.875C28.6009 30 30 28.6009 30 26.875V8.12504C30 6.3991 28.6009 5 26.875 5Z" fill="black"/>
<path d="M21.8187 24.1163C21.7173 23.8933 21.495 23.7501 21.25 23.75H15C14.6548 23.75 14.375 24.0298 14.375 24.375C14.375 24.4501 14.3885 24.5247 14.415 24.595L16.29 29.595C16.3674 29.8009 16.5474 29.9509 16.7638 29.99C16.8005 29.9963 16.8377 29.9997 16.875 30C17.0552 29.9998 17.2265 29.9219 17.345 29.7863L21.72 24.7863C21.8816 24.6017 21.9202 24.3396 21.8187 24.1163Z" fill="#D93900"/>
<path d="M26.8751 13.75H18.125C17.7798 13.75 17.5 13.4702 17.5 13.125C17.5 12.7798 17.7798 12.5 18.125 12.5H26.875C27.2202 12.5 27.5 12.7798 27.5 13.125C27.5 13.4702 27.2202 13.75 26.8751 13.75Z" fill="#7D96A3"/>
<path d="M21.875 13.75C21.5298 13.75 21.25 13.4702 21.25 13.125V11.875C21.25 11.5298 21.5298 11.25 21.875 11.25C22.2202 11.25 22.5 11.5298 22.5 11.875V13.125C22.5 13.4702 22.2202 13.75 21.875 13.75Z" fill="#7D96A3"/>
<path d="M19.9999 21.25C19.6547 21.2497 19.3751 20.9697 19.3755 20.6245C19.3757 20.4228 19.4732 20.2335 19.6375 20.1163C22.375 18.1713 24.3749 14.2063 24.3749 13.125C24.3749 12.7798 24.6548 12.5 25 12.5C25.3451 12.5 25.625 12.7798 25.625 13.125C25.625 14.7725 23.2163 19.1075 20.3625 21.1338C20.2566 21.2093 20.1299 21.2499 19.9999 21.25Z" fill="#7D96A3"/>
<path d="M25 22.5C24.8436 22.5002 24.6929 22.4418 24.5775 22.3362C24.125 21.9212 20.13 18.2312 19.4212 16.485C19.2911 16.165 19.445 15.8002 19.765 15.67C20.085 15.5399 20.4499 15.6938 20.58 16.0138C21.0912 17.2738 24.25 20.3388 25.4238 21.4126C25.6792 21.6447 25.698 22.04 25.4659 22.2955C25.3467 22.4266 25.1773 22.5009 25 22.5Z" fill="#7D96A3"/>
<path d="M21.8412 24.1725L13.7163 0.42252C13.6297 0.169805 13.3921 0 13.125 0H3.12498C1.3991 0 0 1.3991 0 3.12498V21.875C0 23.6009 1.3991 25 3.12498 25H21.25C21.5951 25 21.8749 24.7201 21.8749 24.3749C21.875 24.3061 21.8636 24.2377 21.8412 24.1725Z" fill="#FE4300"/>
<path d="M11.8751 17.5C11.6108 17.5 11.3751 17.3339 11.2863 17.085L8.75007 9.98247L6.21384 17.085C6.08476 17.4051 5.7206 17.56 5.40045 17.4309C5.0984 17.3092 4.94048 16.9758 5.03757 16.665L8.16256 7.91499C8.31543 7.59021 8.70267 7.45081 9.02746 7.60362C9.16427 7.66802 9.27437 7.77812 9.33882 7.91499L12.4638 16.665C12.5802 16.9891 12.4125 17.3462 12.0888 17.4637C12.0201 17.488 11.9478 17.5003 11.8751 17.5Z" fill="#FAFAFA"/>
<path d="M10 13.75H7.50002C7.15484 13.75 6.875 13.4702 6.875 13.125C6.875 12.7798 7.15484 12.5 7.50002 12.5H10C10.3452 12.5 10.6251 12.7798 10.6251 13.125C10.625 13.4702 10.3452 13.75 10 13.75Z" fill="#FAFAFA"/>
</g>
<defs>
<clipPath id="clip0_52_514">
<rect width="30" height="30" fill="white"/>
</clipPath>
</defs>
</svg>
