<svg width="30" height="30" viewBox="0 0 30 30" fill="none" xmlns="http://www.w3.org/2000/svg">
<g clip-path="url(#clip0_46_293)">
<path fill-rule="evenodd" clip-rule="evenodd" d="M15 0C23.2846 0 30 6.71543 30 15C30 23.2846 23.2846 30 15 30C6.71543 30 0 23.2846 0 15C0 6.71543 6.71543 0 15 0ZM8.31797 21.9615H11.1908V12.6797H8.31797V21.9615ZM9.74063 11.4645C10.6793 11.4645 11.4398 10.6969 11.4398 9.75117C11.4398 8.80547 10.6793 8.03848 9.74063 8.03848C8.80195 8.03848 8.04199 8.80547 8.04199 9.75117C8.04199 10.6969 8.80195 11.4645 9.74063 11.4645ZM15.7834 17.0895C15.7834 15.7846 16.3846 15.0064 17.5348 15.0064C18.5906 15.0064 19.0986 15.7529 19.0986 17.0895V21.9615H21.958C21.958 21.9615 21.958 18.5707 21.958 16.0846C21.958 13.5984 20.5488 12.3961 18.5807 12.3961C16.6119 12.3961 15.7834 13.9301 15.7834 13.9301V12.6797H13.0277V21.9615H15.7834C15.7834 21.9615 15.7834 18.5191 15.7834 17.0895Z" fill="black"/>
</g>
<defs>
<clipPath id="clip0_46_293">
<rect width="30" height="30" fill="white"/>
</clipPath>
</defs>
</svg>
