<svg width="30" height="30" viewBox="0 0 30 30" fill="none" xmlns="http://www.w3.org/2000/svg">
<path d="M17.5013 28.4363H12.4988C10.0688 28.4363 8.31006 28.4363 6.88881 28.245C5.25756 28.0275 4.15131 27.5475 3.30006 26.6963C2.44881 25.845 1.97256 24.7388 1.75131 23.1075C1.56006 21.6825 1.56006 19.9275 1.56006 17.4975C1.56006 15.0675 1.56006 13.3088 1.75131 11.8875C1.96881 10.2563 2.44881 9.15 3.30006 8.29875C4.23756 7.36125 5.46381 6.88125 7.40631 6.69L7.59006 8.5575C6.09756 8.70375 5.23506 9.015 4.62756 9.62625C3.43881 10.8188 3.43881 13.05 3.43881 17.5013C3.43881 21.9488 3.43881 24.1838 4.62756 25.3725C5.81631 26.5613 8.05131 26.5613 12.4988 26.5613H17.4976C21.9488 26.5613 24.1801 26.5613 25.3688 25.3725C26.5576 24.1838 26.5576 21.9488 26.5576 17.5013C26.5576 13.05 26.5576 10.8188 25.3688 9.63C24.7576 9.01875 23.8988 8.71125 22.4063 8.56125L22.5901 6.69375C24.5326 6.885 25.7626 7.365 26.6963 8.3025C27.5476 9.15375 28.0238 10.26 28.2451 11.8913C28.4363 13.3163 28.4363 15.0713 28.4363 17.5013C28.4363 19.9313 28.4363 21.69 28.2451 23.1113C28.0276 24.7425 27.5476 25.8488 26.6963 26.7C25.8451 27.5513 24.7388 28.0275 23.1076 28.2488C21.6863 28.4363 19.9313 28.4363 17.5013 28.4363Z" fill="#FE4300"/>
<path d="M17.5013 8.4375H12.4988C11.9813 8.4375 11.5613 8.0175 11.5613 7.5C11.5613 6.9825 11.9813 6.5625 12.4988 6.5625H17.4975C18.015 6.5625 18.435 6.9825 18.435 7.5C18.435 8.0175 18.0188 8.4375 17.5013 8.4375Z" fill="black"/>
<path d="M16.2488 12.1875H13.7476C13.2301 12.1875 12.8101 11.7675 12.8101 11.25C12.8101 10.7325 13.2301 10.3125 13.7476 10.3125H16.2488C16.7663 10.3125 17.1863 10.7325 17.1863 11.25C17.1863 11.7675 16.7663 12.1875 16.2488 12.1875Z" fill="black"/>
<path d="M15 18.555C13.3013 18.555 11.9888 17.46 9.6 15.4688L8.7 14.7188C7.74 13.92 7.21125 13.4775 6.88875 12.7875C6.5625 12.0938 6.5625 11.4075 6.5625 10.1588V8.7525C6.5625 5.65125 6.5625 3.945 7.75125 2.75625C8.94 1.5675 10.65 1.5675 13.7475 1.5675H16.2487C19.35 1.5675 21.0563 1.5675 22.245 2.75625C23.4375 3.94125 23.4375 5.65125 23.4375 8.74875V10.155C23.4375 11.4038 23.4375 12.09 23.1112 12.7838C22.785 13.4775 22.26 13.9163 21.3 14.715L20.4 15.465C18.0113 17.46 16.6988 18.555 15 18.555ZM13.7513 3.43875C10.8825 3.43875 9.69375 3.465 9.07875 4.08C8.46375 4.695 8.4375 5.88375 8.4375 8.7525V10.1588C8.4375 11.2388 8.445 11.6888 8.58375 11.9925C8.72625 12.2963 9.0675 12.5888 9.89625 13.2788L10.7962 14.0288C13.0613 15.915 14.0175 16.68 14.9963 16.68C15.975 16.68 16.935 15.915 19.1962 14.0288L20.0963 13.2788C20.925 12.5888 21.27 12.2925 21.4088 11.9925C21.5513 11.6888 21.555 11.2388 21.555 10.1588V8.7525C21.555 5.88375 21.5288 4.695 20.9138 4.08C20.2988 3.465 19.11 3.43875 16.2413 3.43875H13.7513Z" fill="black"/>
</svg>
