<svg width="30" height="30" viewBox="0 0 30 30" fill="none" xmlns="http://www.w3.org/2000/svg">
<path d="M17.5012 28.4362H12.4987C10.065 28.4362 8.30997 28.4362 6.88497 28.2375C5.24997 28.0087 4.14372 27.5175 3.29247 26.6362C2.44872 25.7625 1.97247 24.6262 1.75497 22.95C1.56372 21.48 1.56372 19.665 1.56372 17.1525V15.2512C1.56372 12.2362 1.56372 10.7212 2.32872 9.32625C3.09747 7.92375 4.43247 7.095 6.86247 5.5875L9.36372 4.035C12.0187 2.38875 13.35 1.56 15.0037 1.56C16.6575 1.56 17.9887 2.38875 20.6437 4.035L23.1375 5.5875C25.5675 7.095 26.9025 7.92375 27.6712 9.32625C28.4362 10.7212 28.4362 12.2362 28.4362 15.2512V17.1525C28.4362 19.665 28.4362 21.48 28.245 22.95C28.0275 24.6225 27.555 25.7587 26.7075 26.6362C25.8562 27.5175 24.75 28.0125 23.115 28.2375C21.69 28.4362 19.9312 28.4362 17.5012 28.4362ZM15 3.43875C13.8825 3.43875 12.7012 4.17 10.35 5.6325L7.84872 7.185C5.62122 8.56875 4.49997 9.2625 3.97122 10.23C3.43872 11.205 3.43872 12.5587 3.43872 15.255V17.1562C3.43872 21.7725 3.43872 24.09 4.63872 25.335C5.82747 26.565 8.05872 26.565 12.4987 26.565H17.4975C21.9412 26.565 24.1725 26.565 25.3575 25.335C26.5575 24.0937 26.5575 21.7762 26.5575 17.1562V15.255C26.5575 12.5587 26.5575 11.205 26.025 10.23C25.4962 9.25875 24.375 8.565 22.1475 7.18125L19.65 5.62875C17.2987 4.17 16.1175 3.43875 15 3.43875Z" fill="#FE4300"/>
<path d="M14.9999 22.1887C13.4474 22.1887 11.9586 21.6937 10.6911 20.7562C10.2749 20.4487 10.1886 19.86 10.4961 19.4437C10.8036 19.0275 11.3924 18.9412 11.8086 19.2487C12.7499 19.9462 13.8524 20.3137 14.9999 20.3137C16.1474 20.3137 17.2499 19.9462 18.1911 19.2487C18.6074 18.9412 19.1961 19.0275 19.5036 19.4437C19.8111 19.86 19.7249 20.4487 19.3086 20.7562C18.0411 21.69 16.5524 22.1887 14.9999 22.1887Z" fill="black"/>
</svg>
