<svg width="62" height="62" viewBox="0 0 62 62" fill="none" xmlns="http://www.w3.org/2000/svg">
<path d="M6.93616 32.3563L21.3512 39.7188C21.7774 39.9319 22.7074 40.455 23.2305 39.6025C23.7149 38.8081 22.9012 38.1688 22.5137 37.8781L5.73491 25.0325C4.51429 24.0638 4.24304 22.1844 5.17304 20.9056C6.10304 19.5688 8.04054 19.1813 9.35804 20.0919L26.408 32.3175C26.718 32.55 27.5705 33.17 28.1905 32.4531C28.8105 31.775 28.1324 31 27.8612 30.7094L12.0318 14.0081C10.8887 12.7488 10.9662 10.6563 12.4968 9.24188C13.7174 8.11813 15.868 8.07938 17.0305 9.28063L32.5887 25.4781C32.8212 25.7106 33.538 26.4469 34.2743 25.9044C35.0299 25.3231 34.4874 24.4706 34.3518 24.1413L24.6837 8.09876C24.0249 7.07188 24.0055 4.96001 25.788 3.89438C27.6287 2.80938 29.3918 3.89438 30.0699 5.03751L40.823 22.32C42.3537 24.8775 44.7562 27.0281 46.8874 28.0356C48.5343 28.8106 49.813 27.8225 50.0262 26.0981C50.3555 23.4244 50.8787 20.1113 51.8087 17.3213C52.7774 14.3956 56.1874 12.9425 59.0937 14.415L58.1055 18.3094C57.1174 22.2619 57.0012 26.4081 57.6793 30.4381C58.2605 33.8094 58.8418 38.1494 58.7643 42.005C58.6674 47.8175 54.7537 50.3556 51.2468 53.5138C36.1149 67.2506 25.1099 48.5731 19.743 45.9188L4.14616 37.2581C2.82866 36.5025 2.53804 34.7394 3.31304 33.4606C4.06866 32.2206 5.61866 31.6781 6.93616 32.3563Z" fill="#FE4300"/>
<path d="M15.248 55.9163C9.59051 55.9163 4.33989 52.7 1.78239 47.6044C1.54989 47.1394 1.74364 46.5581 2.22801 46.3063C2.71239 46.0738 3.29364 46.2675 3.52614 46.7325C5.81239 51.2663 10.5593 54.1144 15.6355 53.9594C16.178 53.9788 16.6236 54.3663 16.6236 54.9088C16.643 55.4513 16.2168 55.8969 15.6743 55.8969C15.5386 55.9163 15.403 55.9163 15.248 55.9163Z" fill="black"/>
<path d="M15.1511 51.1113C15.1123 51.1113 15.093 51.1113 15.0542 51.1113C11.3342 50.7431 8.02108 48.5731 6.2192 45.2988C5.96733 44.8338 6.12233 44.2331 6.6067 43.9813C7.0717 43.7294 7.67233 43.8844 7.9242 44.3688C9.41608 47.0813 12.1673 48.8831 15.248 49.1931C15.7711 49.2513 16.178 49.7163 16.1198 50.2588C16.0617 50.7431 15.6355 51.1113 15.1511 51.1113Z" fill="black"/>
<path d="M47.7206 15.8488C47.2362 15.8488 46.81 15.4806 46.7519 14.9769C46.2094 9.93938 42.7412 5.61875 37.9362 3.97188C37.4325 3.7975 37.1612 3.255 37.3356 2.75125C37.51 2.2475 38.0525 1.97625 38.5562 2.15063C44.0587 4.03 48.0306 8.99 48.67 14.7831C48.7281 15.3063 48.3406 15.7906 47.8175 15.8488C47.7981 15.8488 47.7594 15.8488 47.7206 15.8488Z" fill="black"/>
<path d="M43.0125 16.8175C42.5475 16.8175 42.1212 16.4688 42.0631 15.9844C41.5981 12.9231 39.6606 10.2688 36.8706 8.91251C36.3862 8.68001 36.1925 8.09876 36.425 7.61438C36.6575 7.13001 37.2387 6.93626 37.7231 7.16876C41.075 8.81563 43.4193 11.9931 43.9812 15.6938C44.0587 16.2169 43.6906 16.7206 43.1675 16.7981C43.1093 16.7981 43.0706 16.8175 43.0125 16.8175Z" fill="black"/>
</svg>
