<svg width="69" height="69" viewBox="0 0 69 69" fill="none" xmlns="http://www.w3.org/2000/svg">
<circle cx="34.5" cy="34.5" r="34.5" fill="#FE4300"/>
<path d="M18.48 39.2H26.12C26.2533 40.1067 26.6667 40.9067 27.36 41.6C28.0533 42.2933 28.9733 42.8267 30.12 43.2C31.2933 43.5733 32.6533 43.76 34.2 43.76C36.4133 43.76 38.1467 43.4533 39.4 42.84C40.68 42.2267 41.32 41.36 41.32 40.24C41.32 39.3867 40.9467 38.7333 40.2 38.28C39.48 37.8 38.12 37.4533 36.12 37.24L30.32 36.64C26.2933 36.24 23.3733 35.3067 21.56 33.84C19.7733 32.3733 18.88 30.3733 18.88 27.84C18.88 25.84 19.4667 24.1333 20.64 22.72C21.84 21.3067 23.5067 20.2267 25.64 19.48C27.8 18.7333 30.32 18.36 33.2 18.36C36.0533 18.36 38.5733 18.7733 40.76 19.6C42.9467 20.4267 44.6933 21.5733 46 23.04C47.3067 24.5067 48.0133 26.2133 48.12 28.16H40.48C40.3733 27.36 40 26.68 39.36 26.12C38.7467 25.5333 37.9067 25.08 36.84 24.76C35.8 24.4133 34.5333 24.24 33.04 24.24C31.04 24.24 29.44 24.5333 28.24 25.12C27.0667 25.68 26.48 26.4933 26.48 27.56C26.48 28.36 26.8267 28.9867 27.52 29.44C28.24 29.8933 29.5067 30.2267 31.32 30.44L37.44 31.12C40.24 31.4133 42.48 31.88 44.16 32.52C45.84 33.16 47.0533 34.04 47.8 35.16C48.5467 36.28 48.92 37.6933 48.92 39.4C48.92 41.4533 48.2933 43.2533 47.04 44.8C45.8133 46.32 44.08 47.5067 41.84 48.36C39.6267 49.2133 37.04 49.64 34.08 49.64C31.0133 49.64 28.32 49.2 26 48.32C23.7067 47.44 21.8933 46.2267 20.56 44.68C19.2533 43.1067 18.56 41.28 18.48 39.2Z" fill="white"/>
</svg>
