<svg width="70" height="70" viewBox="0 0 70 70" fill="none" xmlns="http://www.w3.org/2000/svg">
<path d="M56.3281 3.28125H13.6719C7.32923 3.28125 2.1875 8.42298 2.1875 14.7656V55.2344C2.1875 61.577 7.32923 66.7188 13.6719 66.7188H56.3281C62.6708 66.7188 67.8125 61.577 67.8125 55.2344V14.7656C67.8125 8.42298 62.6708 3.28125 56.3281 3.28125Z" fill="#470137"/>
<path d="M35.9216 21.2298L27.8497 35.0985L36.5478 49.8642C36.7255 50.1649 36.6489 50.3126 36.3236 50.3126H30.8986C30.7642 50.3268 30.6288 50.3002 30.5098 50.2363C30.3908 50.1724 30.2938 50.0742 30.2314 49.9544L24.1091 38.7243H24.0626L18.1017 49.9544C18.0469 50.0613 17.9639 50.1511 17.8617 50.2142C17.7596 50.2774 17.6421 50.3114 17.522 50.3126H12.3048C12.0068 50.3126 11.9493 50.1649 12.1271 49.8642L20.6802 35.5032L12.5318 21.1396C12.354 20.9017 12.4142 20.7813 12.7095 20.7813H18.1454C18.262 20.773 18.3785 20.7982 18.4812 20.8539C18.5839 20.9096 18.6686 20.9936 18.7251 21.0958L24.4673 32.1919H24.5111L30.2232 21.0958C30.2795 20.994 30.3637 20.9103 30.4659 20.8547C30.5681 20.799 30.684 20.7735 30.8001 20.7813H35.7439C36.072 20.7813 36.1294 20.9317 35.9216 21.2298Z" fill="#FF61F6"/>
<path d="M49.1832 50.8594C46.0113 50.8594 43.5695 49.9598 41.6746 48.1633C39.7797 46.3668 38.8281 43.7117 38.8281 40.1953C38.8281 36.9997 39.8471 34.3747 41.8852 32.3203C42.928 31.2409 44.1818 30.3878 45.5686 29.8139C46.9554 29.2399 48.4455 28.9576 49.9461 28.9844C50.6177 28.9724 51.2882 29.044 51.9422 29.1976V19.9445C51.9372 19.9099 51.9404 19.8745 51.9514 19.8413C51.9624 19.808 51.9809 19.7778 52.0055 19.7529C52.0302 19.728 52.0602 19.7091 52.0933 19.6978C52.1265 19.6864 52.1618 19.6829 52.1965 19.6875H57.1949C57.3344 19.6875 57.4055 19.7723 57.4055 19.9445V45.8527C57.4055 46.9465 57.8785 47.8789 57.9523 48.6773C57.9674 48.7564 57.9543 48.8382 57.9154 48.9087C57.8764 48.9791 57.814 49.0336 57.7391 49.0629C55.2863 50.2605 52.0707 50.8594 49.1832 50.8594ZM51.9531 46.6238V33.3976C51.7754 33.0859 50.8348 32.8125 49.8723 32.8125C49.0756 32.7918 48.2845 32.9493 47.5564 33.2733C46.8284 33.5974 46.1819 34.0798 45.6641 34.6855C44.4029 36.1626 43.7225 38.0482 43.75 39.9902C43.75 42.3855 44.5703 44.0262 45.6395 45.1664C46.1448 45.7459 46.7673 46.2117 47.4657 46.5332C48.1642 46.8546 48.9229 47.0244 49.6918 47.0312C50.7117 47.0312 51.7098 46.8781 51.9531 46.6238Z" fill="#FF61F6"/>
</svg>
