<svg width="259" height="171" viewBox="0 0 259 171" fill="none" xmlns="http://www.w3.org/2000/svg">
<path d="M176 85.5C176 132.72 136.601 171 88 171C39.3989 171 0 132.72 0 85.5C0 38.2797 39.3989 0 88 0C136.601 0 176 38.2797 176 85.5ZM32.9967 85.5C32.9967 115.014 57.6225 138.941 88 138.941C118.377 138.941 143.003 115.014 143.003 85.5C143.003 55.9855 118.377 32.0593 88 32.0593C57.6225 32.0593 32.9967 55.9855 32.9967 85.5Z" fill="#FE4300"/>
<path opacity="0.1" d="M259 85.5C259 131.063 221.84 168 176 168C130.16 168 93 131.063 93 85.5C93 39.9365 130.16 3 176 3C221.84 3 259 39.9365 259 85.5ZM124.122 85.5C124.122 113.979 147.348 137.066 176 137.066C204.652 137.066 227.878 113.979 227.878 85.5C227.878 57.0211 204.652 33.9344 176 33.9344C147.348 33.9344 124.122 57.0211 124.122 85.5Z" fill="#FE4300"/>
</svg>
