<svg width="70" height="70" viewBox="0 0 70 70" fill="none" xmlns="http://www.w3.org/2000/svg">
<path d="M35.0818 35.0001C35.0818 28.5568 40.3051 23.3335 46.7484 23.3335C53.1917 23.3335 58.415 28.557 58.415 35.0001C58.415 41.4435 53.1916 46.6667 46.7484 46.6667C40.305 46.6667 35.0818 41.4434 35.0818 35.0001Z" fill="#00BCFF"/>
<path d="M11.7485 58.3334C11.7485 51.8901 16.9719 46.6668 23.4152 46.6668L29.6324 43.3843L35.0818 46.6668V58.3334C35.0818 64.7768 29.8584 70 23.4152 70C16.9719 70 11.7485 64.7767 11.7485 58.3334Z" fill="#00CF7F"/>
<path d="M35.0818 0L28.7334 11.0291L35.0818 23.3332H46.5848C53.0282 23.3332 58.2514 18.1099 58.2514 11.6666C58.2514 5.22334 53.028 0 46.5848 0H35.0818Z" fill="#FF7361"/>
<path d="M11.5847 11.6666C11.5847 18.1099 16.8081 23.3332 23.2513 23.3332L29.4402 25.7236L35.0816 23.3332V0H23.2512C16.8081 0 11.5847 5.22334 11.5847 11.6666Z" fill="#FF4D12"/>
<path d="M11.7485 35C11.7485 41.4434 16.9719 46.6666 23.4152 46.6666H35.0818V23.3333H23.4152C16.9719 23.3333 11.7485 28.5567 11.7485 35Z" fill="#B659FF"/>
</svg>
