<svg width="70" height="70" viewBox="0 0 70 70" fill="none" xmlns="http://www.w3.org/2000/svg">
<g clip-path="url(#clip0_41_221)">
<path d="M70 6.34553C70 2.84102 67.159 0 63.6545 0H6.34553C2.84102 0 0 2.84102 0 6.34553V63.6545C0 67.159 2.84102 70 6.34553 70H63.6545C67.159 70 70 67.159 70 63.6545V6.34553ZM23.3248 13.6641C25.652 13.6641 27.6011 15.4875 27.6011 17.8762C27.6011 20.2668 25.652 22.0906 23.3248 22.0906C20.9981 22.0906 19.049 20.2668 19.049 17.8762C19.049 15.4874 20.9981 13.6641 23.3248 13.6641ZM51.9332 53.9716C47.5941 53.9716 45.5196 51.3948 45.5196 47.8721C45.5196 46.8671 45.6448 45.797 45.9592 44.728L48.0348 37.3078C48.2861 36.49 48.3492 35.7361 48.3492 35.0439C48.3492 32.6551 46.9027 31.2082 44.5759 31.2082C41.6201 31.2082 39.6707 33.3296 38.6647 37.4173L34.6397 53.5607H27.5971L28.8611 48.4874C26.7911 51.888 23.9161 53.9943 20.3693 53.9943C16.0932 53.9943 14.0808 51.5309 14.0808 47.8201C14.0808 46.8783 14.2069 45.7237 14.4581 44.6547L17.6652 31.553H12.6978L14.207 25.9849H26.1548L21.438 44.6946C21.1236 45.8902 20.9979 46.882 20.9979 47.5725C20.9979 48.7689 21.5868 49.1187 22.5077 49.3263C23.0684 49.452 27.5372 49.3642 29.9704 43.9562L33.068 31.553H28.0372L29.5464 25.9849H40.2995L38.9163 32.3065C40.8025 28.7845 44.5758 25.4382 48.2858 25.4382C52.2475 25.4382 55.5178 28.2605 55.5178 33.6685C55.5178 35.0513 55.329 36.5568 54.826 38.2542L52.8134 45.4835C52.6252 46.2398 52.4989 46.8679 52.4989 47.4336C52.4989 48.6907 53.0023 49.3192 53.9458 49.3192C54.8889 49.3192 56.0837 48.6259 57.4673 44.7919L60.2338 45.8601C58.5989 51.583 55.6434 53.9716 51.9332 53.9716Z" fill="#FF3366"/>
</g>
<defs>
<clipPath id="clip0_41_221">
<rect width="70" height="70" fill="white"/>
</clipPath>
</defs>
</svg>
