<svg width="70" height="70" viewBox="0 0 70 70" fill="none" xmlns="http://www.w3.org/2000/svg">
<g clip-path="url(#clip0_41_187)">
<path d="M12.3959 0.875H57.6043C64.4584 0.875 70 6.41662 70 13.2709V56.7293C70 63.5834 64.4584 69.1251 57.6041 69.1251H12.3959C5.54162 69.125 0 63.5834 0 56.7291V13.2709C0 6.41662 5.54162 0.875 12.3959 0.875Z" fill="#001834"/>
<path d="M15.75 48.7374V18.7249C15.75 18.5208 15.8375 18.404 16.0416 18.404C16.5375 18.404 17.0041 18.404 17.675 18.3749C18.375 18.3458 19.1041 18.3458 19.8916 18.3165C20.6791 18.2872 21.525 18.2874 22.4291 18.2581C23.3332 18.229 24.2082 18.229 25.0832 18.229C27.4749 18.229 29.4582 18.5206 31.0916 19.1331C32.55 19.629 33.8916 20.4456 35 21.5247C35.9334 22.4581 36.6625 23.5956 37.1291 24.8497C37.5666 26.0747 37.8 27.3289 37.8 28.6414C37.8 31.1497 37.2166 33.2205 36.05 34.8539C34.8834 36.4872 33.25 37.7122 31.3541 38.4122C29.3707 39.1414 27.1832 39.4039 24.7916 39.4039C24.0916 39.4039 23.625 39.4039 23.3332 39.3747C23.0416 39.3456 22.6332 39.3456 22.0791 39.3456V48.7081C22.1082 48.9122 21.9625 49.0872 21.7582 49.1165C21.7291 49.1165 21.6999 49.1165 21.6416 49.1165H16.1C15.8666 49.1165 15.75 48.9999 15.75 48.7374ZM22.1084 24.0333V33.8333C22.5168 33.8624 22.8959 33.8916 23.2459 33.8916H24.7918C26.8058 33.8916 29.1318 33.4183 30.5375 31.8209C31.7473 30.4461 31.7507 27.7196 30.7709 26.2209C29.6077 24.4418 27.2815 23.9263 25.2875 23.975C24.5291 23.975 23.8584 23.975 23.3041 24.0041C22.7209 23.9749 22.3125 24.004 22.1084 24.0333Z" fill="#00A9FF"/>
<path d="M56.0001 32.054C55.1251 31.5874 54.1917 31.2665 53.2001 31.0624C52.1209 30.829 51.0417 30.6833 49.9334 30.6833C49.3501 30.6542 48.7376 30.7417 48.1834 30.8874C47.8043 30.9749 47.4834 31.179 47.2793 31.4708C47.1334 31.7042 47.0459 31.9958 47.0459 32.2583C47.0459 32.5208 47.1626 32.7833 47.3376 33.0167C47.6001 33.3375 47.9501 33.6 48.3292 33.8042C49.0001 34.1542 49.7001 34.475 50.4001 34.7667C51.9751 35.2917 53.4917 36.0208 54.8917 36.8958C55.8542 37.5083 56.6417 38.3249 57.1958 39.3167C57.6624 40.25 57.8958 41.2708 57.8667 42.3208C57.8958 43.6917 57.4876 45.0624 56.7292 46.1999C55.9126 47.3665 54.7751 48.2708 53.4626 48.7958C52.0334 49.4083 50.2834 49.7292 48.1834 49.7292C46.8418 49.7292 45.5293 49.6125 44.2168 49.35C43.1959 49.175 42.1752 48.8542 41.2418 48.4167C41.0377 48.3 40.8918 48.0958 40.9209 47.8625V42.7875C40.9209 42.7 40.9501 42.5834 41.0376 42.525C41.1251 42.4667 41.2126 42.4959 41.3001 42.5542C42.4376 43.225 43.6334 43.6917 44.9167 43.9833C46.0251 44.2749 47.1917 44.4208 48.3583 44.4208C49.4667 44.4208 50.2542 44.2749 50.7792 44.0124C51.2458 43.8083 51.5667 43.3124 51.5667 42.7874C51.5667 42.379 51.3333 41.9999 50.8667 41.6208C50.4001 41.2417 49.4376 40.8042 48.0083 40.2499C46.5208 39.7249 45.1499 39.0249 43.8667 38.1499C42.9626 37.5083 42.2042 36.6624 41.6501 35.6708C41.1834 34.7374 40.9501 33.7167 40.9792 32.6958C40.9792 31.4417 41.3292 30.2458 41.9708 29.1667C42.6999 28 43.7792 27.0667 45.0333 26.4833C46.4042 25.7833 48.1249 25.4624 50.1958 25.4624C51.3917 25.4624 52.6167 25.5499 53.8124 25.7249C54.6874 25.8415 55.5333 26.0749 56.3208 26.3958C56.4374 26.4249 56.5542 26.5417 56.6124 26.6583C56.6415 26.7749 56.6708 26.8917 56.6708 27.0083V31.7624C56.6708 31.879 56.6124 31.9958 56.5249 32.054C56.2626 32.1124 56.1167 32.1124 56.0001 32.054Z" fill="#00A9FF"/>
</g>
<defs>
<clipPath id="clip0_41_187">
<rect width="70" height="70" fill="white"/>
</clipPath>
</defs>
</svg>
